<?xml version="1.0" encoding="UTF-8"?>
<svg fill="currentColor" version="1.1" viewBox="0 0 128 128" xmlns="http://www.w3.org/2000/svg">
  <path
    d="m71.268 85.707v22.989c0 2.9133 2.3822 5.3036 5.3475 5.3036 1.337 0 2.6666-0.50198 3.6834-1.4567 12.622-11.915 35.165-33.179 45.483-42.916 1.4223-1.3365 2.2188-3.1963 2.2188-5.1268 0-1.9375-0.79645-3.7904-2.2188-5.1268-10.318-9.7372-32.86-31.008-45.483-42.909-1.0168-0.96161-2.3464-1.4638-3.6834-1.4638-2.9653 0-5.3475 2.3831-5.3475 5.3036v22.989h-64.142c-3.7761 0-7.1254 3.3236-7.1254 7.0714v28.271c0 3.7478 3.3493 7.0714 7.1254 7.0714z"
    clip-rule="evenodd" stroke-linejoin="round" stroke-miterlimit="2" />
</svg>