<svg viewBox="0 0 512 512" fill="none" xmlns="http://www.w3.org/2000/svg">
  <g clip-path="url(#clip0_1_2)">
    <path
      d="M437.58 351.63H437.587C437.587 389.258 410.213 420.602 374.337 426.851L430.688 512.001H380.586L357.455 477.04H154.585L131.453 512.001H81.3428L137.703 426.851C129.585 425.439 121.903 422.742 114.874 418.979L163.498 370.354C166.523 368.449 169.088 365.883 170.992 362.859L303.03 230.823H360.244C371.519 230.823 380.673 221.678 380.673 210.394V153.18L437.58 96.2725V351.63ZM187.036 427.998L169.626 454.316H342.396L324.986 427.998H187.036ZM361.206 326.354C348.048 326.354 337.38 337.023 337.38 350.19C337.38 363.34 348.048 374.008 361.206 374.008C374.365 374.008 385.033 363.34 385.033 350.19C385.033 337.022 374.365 326.355 361.206 326.354ZM347.712 0.00195312C375.441 0.00195312 400.23 12.5548 416.713 32.2861L345.25 103.75H151.784C140.5 103.75 131.363 112.904 131.363 124.188V210.394C131.363 221.678 140.5 230.823 151.784 230.823H218.177L77.1523 371.847C75.3804 365.405 74.4336 358.626 74.4336 351.63V89.8701C74.4336 40.2352 114.677 0.00208096 164.302 0.00195312H347.712ZM178.19 40.3496V66.29H333.83V40.3496H178.19Z"
      fill="currentColor" />
    <line x1="495.413" y1="13.3359" x2="13.4127" y2="498.336" stroke="currentColor"
      stroke-width="35" />
  </g>
  <defs>
    <clipPath id="clip0_1_2">
      <rect width="512" height="512" fill="white" />
    </clipPath>
  </defs>
</svg>