<svg viewBox="0 0 512 512" fill="none" xmlns="http://www.w3.org/2000/svg">
  <g clip-path="url(#clip0_1_2)">
    <path
      d="M437.58 351.63H437.587C437.587 389.258 410.213 420.602 374.337 426.851L430.688 512.001H380.586L357.455 477.04H154.585L131.453 512.001H81.3428L137.703 426.851C134.487 426.291 131.339 425.529 128.272 424.58L322.03 230.823H360.244C371.519 230.823 380.673 221.678 380.673 210.394V172.18L437.58 115.272V351.63ZM187.036 427.998L169.626 454.316H342.396L324.986 427.998H187.036ZM347.712 0.00195312C380.332 0.00195312 408.884 17.3733 424.631 43.3682L363.919 104.08C362.727 103.863 361.499 103.75 360.244 103.75H151.784C140.5 103.75 131.363 112.904 131.363 124.188V210.394C131.363 221.678 140.5 230.823 151.784 230.823H237.177L137.731 330.268C135.02 332.053 132.696 334.378 130.909 337.09L82.415 385.584C77.309 375.352 74.4336 363.82 74.4336 351.63V89.8701C74.4336 40.2352 114.677 0.00208096 164.302 0.00195312H347.712ZM361.206 326.354C348.048 326.354 337.38 337.023 337.38 350.19C337.38 363.34 348.048 374.008 361.206 374.008C374.365 374.008 385.033 363.34 385.033 350.19C385.033 337.022 374.365 326.355 361.206 326.354ZM178.19 40.3496V66.29H333.83V40.3496H178.19Z"
      fill="currentColor" />
    <line x1="495.413" y1="13.3359" x2="13.4127" y2="498.336" stroke="currentColor"
      stroke-width="35" />
  </g>
  <defs>
    <clipPath id="clip0_1_2">
      <rect width="512" height="512" fill="white" />
    </clipPath>
  </defs>
</svg>