<?xml version="1.0" encoding="UTF-8"?>
<svg fill="currentColor" version="1.1" viewBox="0 0 512 512" xml:space="preserve"
	xmlns="http://www.w3.org/2000/svg">
	<path d="m437.58 351.63v-261.76c0-49.635-40.224-89.868-89.868-89.868h-183.41c-49.625 0-89.868 40.233-89.868 89.868v261.76c0 37.628 27.383 68.98 63.269 75.221l-56.36 85.15h50.11l23.132-34.961h202.87l23.131 34.961h50.101l-56.35-85.15c35.876-6.249 63.25-37.593 63.25-75.221zm-259.39-311.28h155.64v25.94h-155.64v-25.94zm-46.827 83.838c0-11.284 9.137-20.438 20.421-20.438h208.46c11.276 0 20.429 9.154 20.429 20.438v86.206c0 11.284-9.154 20.429-20.429 20.429h-208.46c-11.284 0-20.421-9.145-20.421-20.429v-86.206zm19.453 249.82c-13.158 0-23.826-10.668-23.826-23.818 0-13.167 10.668-23.836 23.826-23.836 13.159 0 23.827 10.668 23.827 23.836 0 13.15-10.668 23.818-23.827 23.818zm18.81 80.308 17.41-26.318h137.95l17.41 26.318h-172.77zm191.58-80.308c-13.158 0-23.826-10.668-23.826-23.818 0-13.167 10.668-23.836 23.826-23.836 13.159 0 23.827 10.668 23.827 23.836 0 13.15-10.668 23.818-23.827 23.818z"/>
</svg>